<?xml version="1.0" standalone="no"?>
<!DOCTYPE svg PUBLIC "-//W3C//DTD SVG 20010904//EN"
 "http://www.w3.org/TR/2001/REC-SVG-20010904/DTD/svg10.dtd">
<svg version="1.0" xmlns="http://www.w3.org/2000/svg"
 width="500.000000pt" height="500.000000pt" viewBox="0 0 500.000000 500.000000"
 preserveAspectRatio="xMidYMid meet">
<metadata>
Created by potrace 1.16, written by Peter Selinger 2001-2019
</metadata>
<g transform="translate(0.000000,500.000000) scale(0.100000,-0.100000)"
fill="#000000" stroke="none">
<path d="M1134 3006 c-3 -8 -4 -23 -2 -33 3 -17 28 -18 435 -21 393 -2 431 -1
437 14 4 9 4 25 1 35 -6 18 -26 19 -436 19 -365 0 -430 -2 -435 -14z"/>
<path d="M3792 2630 c-29 -10 -98 -46 -152 -80 -163 -101 -218 -102 -370 -9
-46 28 -112 58 -147 67 -59 16 -67 16 -130 -1 -41 -11 -104 -39 -160 -73 -154
-93 -205 -95 -339 -13 -101 62 -144 78 -210 79 -68 0 -135 -21 -198 -63 -160
-107 -226 -109 -380 -13 -89 56 -130 74 -199 86 -88 17 -259 -37 -399 -128
-47 -30 -58 -42 -58 -64 0 -42 33 -46 83 -10 105 75 234 122 333 122 65 0 81
-6 268 -110 72 -39 85 -43 150 -44 78 0 140 23 259 100 46 30 71 39 118 42 69
5 93 -3 202 -70 86 -51 164 -73 224 -62 56 10 130 41 179 75 70 48 145 79 192
79 51 0 97 -18 177 -70 80 -52 137 -71 211 -71 76 0 134 22 239 87 92 58 141
79 207 88 49 7 65 26 52 60 -9 22 -84 21 -152 -4z"/>
<path d="M3096 2047 c-11 -8 -17 -23 -14 -38 l3 -24 424 -3 c304 -1 428 1 437
9 20 16 17 47 -5 59 -31 16 -822 14 -845 -3z"/>
</g>
</svg>
